<?xml version="1.0" encoding="utf-8"?>
<!-- Generator: Adobe Illustrator 16.0.0, SVG Export Plug-In . SVG Version: 6.00 Build 0)  -->
<!DOCTYPE svg PUBLIC "-//W3C//DTD SVG 1.0//EN" "http://www.w3.org/TR/2001/REC-SVG-20010904/DTD/svg10.dtd">
<svg version="1.0" id="Layer_1" xmlns="http://www.w3.org/2000/svg" xmlns:xlink="http://www.w3.org/1999/xlink" x="0px" y="0px"
	 width="800px" height="800px" viewBox="0 0 800 800" enable-background="new 0 0 800 800" xml:space="preserve">
<g>
	<path fill-rule="evenodd" clip-rule="evenodd" fill="#045BAA" d="M138.167,400.484c0-145.517,118.413-263.608,263.608-263.608
		c145.191,0,263.607,118.092,263.607,263.608c0,145.192-118.416,263.284-263.607,263.284
		C256.581,663.769,138.167,545.677,138.167,400.484 M130.746,400.484c0,149.389,121.64,270.705,271.029,270.705
		c149.387,0,271.027-121.316,271.027-270.705c0-149.711-121.641-271.028-271.027-271.028
		C252.386,129.456,130.746,250.773,130.746,400.484z"/>
	<path fill-rule="evenodd" clip-rule="evenodd" fill="#045BAA" d="M492.441,509.54c-27.428,0-54.529-8.389-77.115-23.877
		c-2.582-1.935-5.162-3.549-7.744-5.807c-1.291-0.969-2.26-1.937-3.549-2.904c-0.967-0.646-0.967-1.29-1.936-0.646
		c-0.646,0.969-1.615,1.613-2.258,2.26c-5.163,4.192-10.648,8.065-16.134,11.614c-11.615,6.776-24.198,12.262-37.427,15.487
		c-46.462,11.615-96.796-2.582-130.352-37.104c-32.266-33.232-45.494-81.632-34.524-126.479
		c10.324-43.882,43.235-80.341,85.503-95.506c23.231-8.712,48.72-10.324,72.919-5.485c13.552,2.581,26.135,7.1,38.074,13.552
		c5.807,3.227,11.615,6.776,16.778,10.971c2.58,1.937,5.163,3.872,7.421,5.808c0.969,0.969,0.969,0.322,1.936-0.323
		c0.646-0.646,1.289-0.968,1.613-1.612c1.613-1.291,2.904-2.259,4.518-3.55c40.654-30.975,97.439-36.137,143.258-13.229
		c40.33,20.649,68.725,60.658,73.564,105.83c5.484,45.493-13.229,91.633-49.045,120.671
		C553.746,498.895,523.414,509.54,492.441,509.54 M524.061,559.873c-0.646,0.646-0.969,1.614-1.938,1.614c-0.967,0-1.934,0-2.58,0
		c-0.969,0-1.936,1.614-2.582,1.935c-2.58,2.26-5.162,4.519-8.066,6.776c-3.549,3.227-7.098,6.776-10.969,9.356
		c-2.26,1.614-4.195,3.228-6.775,4.518c-2.26,1.291-4.842,3.226-7.424,4.195c-5.807,1.936-10.967,2.904-17.1,3.55
		c-5.162,0.646-10.324,0.322-15.809,0c-4.193-0.323-8.068-1.938-12.262-2.905c-4.193-1.291-8.389-2.58-12.584-3.871
		c-4.193-1.614-8.066-3.872-12.262-5.486c5.164,0.97,10.004,1.614,15.49,1.614c6.129-0.323,12.258-0.323,18.391-0.323
		c2.58-0.321,4.84-0.321,7.42-0.645c2.904,0,5.486-0.646,8.066-1.614c5.486-1.289,11.293-1.935,15.811-5.162
		c-2.258,0-4.195,0.647-6.453,1.291c-0.967,0.323-1.936,0-2.904,0c-1.291,0.323-2.258,0.645-3.549,0.645s-2.58-1.288-3.871-0.968
		c-0.967,0.323-2.26,0.646-3.229,0.968c-2.904,0.646-5.809,1.292-8.711,1.938c-4.193,0.644-8.389,0-12.584,0.323
		c-2.258,0.32-4.516,0.32-7.096,0.32c-1.938,0-5.166,0.323-7.1-0.644c2.58-1.291,4.518-1.938,7.42-2.259
		c2.26-0.323,5.162-0.646,7.422-1.291c5.486-1.936,10.971-3.227,16.455-5.484c5.162-2.26,10.324-4.519,15.811-5.485
		c2.26-0.646,4.84-0.323,7.098-0.323c3.873,0,7.744,0,11.615-0.322c5.809,0,10.971-2.58,16.457-4.194
		c3.225-0.969,6.451-1.937,10-2.26c1.613,0,3.229,0.323,4.84,0.323c0.969,0,1.291,0,1.936,0.646
		C523.092,556.97,525.027,558.906,524.061,559.873z M482.438,602.787c-1.291,0.322-2.258,0.968-3.227,0.968
		c-1.613,0-3.227,0-4.518,0.323c-3.871,0.968-7.42,2.58-10.969,4.194c-2.58,1.289-5.162,3.226-7.746,3.871
		c-3.225,0.968-6.451,1.936-9.678,2.905c-5.484,1.611-10.648,2.902-16.133,2.902s-12.584-0.322-17.424-2.902
		c-2.904-1.291-5.484-2.583-8.064-3.551c-5.809-3.226-11.94-5.807-17.748-9.357c-2.903-1.935-5.162-4.194-6.775-7.097
		c-1.29-1.614-2.258-3.227-3.871-4.194c-1.292-1.291-2.904-3.552-5.163-3.552s-4.517-0.32-6.775-0.32
		c-0.646,0-1.614-1.291-1.937-1.937c-0.645-0.646-1.613-1.291-2.581-1.937c-0.646-0.322-1.613-0.969-2.258-1.612
		c-1.291-0.646-1.291-1.291-2.582,0c1.935,1.935,3.872,3.871,5.484,6.129c0.646,0.969,0,2.905,1.614,2.905
		c1.613-0.323,3.549-0.646,5.484-0.323c6.131,0.969,9.357,7.098,11.616,12.261c1.291,2.582,1.936,6.453,1.936,9.356
		c0,1.291,0.323,2.905,0,4.195c-0.323,1.291-1.291,2.904-1.936,4.195c0,0.32-0.645,2.904-1.29,3.226
		c-1.613,0.323-3.227,0.646-4.84,1.291c-2.904,0.646-5.485-0.645-8.066-1.291c-3.226-0.645-5.484-2.259-8.066-4.194
		c-0.968-0.645-3.227-1.613-3.549-2.582c-0.967-1.935-1.936-3.549-2.581-5.483c-0.645-1.292-0.645-2.26-0.645-3.874
		c0-1.291-0.646-3.548-0.322-4.839c1.29-3.549,2.258-6.452,4.839-8.711c0.968,1.612,1.29,3.226,1.936,4.839
		c0.969,2.259,2.259,2.259,3.872,0.646c1.291-1.291-1.291-2.902-2.258-3.872c-0.323-0.645-0.323-0.968-0.323-1.936
		c0-1.612-0.322-1.612-0.968-2.58c-1.29-1.614-2.581-2.905-3.871-4.195c-0.969-0.645-3.227-2.259-3.55-3.228
		c0-1.291-0.646-4.84-2.259-2.581c-1.291,1.937-0.322,2.904,0.646,4.841c-2.904,0-5.808-1.291-8.712-1.937
		c-2.581-0.646-5.162-1.614-7.743-2.581c-4.84-1.614-10.002-3.871-14.843-6.13c-5.485-2.581-10.97-3.872-16.778-5.485
		c-1.29-0.323-1.936-0.646-3.226-0.323c-1.291,0-3.873-0.967-4.84-0.644c-1.291,0.644-2.581,1.289-3.55,1.289
		c-1.935-0.322-2.903-0.322-4.194-1.612c-4.194-3.228-4.517-9.357-8.067-13.553c-3.226-4.194-6.775-9.034-11.616-11.615
		c-1.613-0.968-5.162-2.903-5.807-4.839c-0.322-1.291-0.968-2.903,0.968-2.903c2.258,0,2.258,0,3.872,1.612
		c1.613,1.612,5.162,0.968,6.776,2.259c2.581,1.291,4.84,2.903,7.421,4.517c4.839,2.903,9.356,6.775,13.874,10.003
		c4.517,3.226,9.357,5.485,14.52,7.42c4.838,1.938,9.357,6.453,14.519,6.776c2.904,0.323,5.808,1.29,8.389,2.581
		c1.291,0.646,1.936,0.646,2.904-0.323c1.291-0.968,1.613-1.935,2.258-3.549c0-0.646,0.645-0.968,0.968-1.613
		c0.322,0-0.645-0.969-0.968-1.291c-0.322-0.644-0.968-3.226-0.968-3.872c0.322-0.967,1.613-2.58,2.258-3.549
		c0.646-1.29,1.614-2.257,2.582-3.227c1.613-1.936,3.549-3.871,5.809-4.516c2.581-0.969,5.162-0.969,8.065-1.291
		c2.259-0.323,5.809-0.97,7.744,0c1.291,0.645,2.581,1.291,3.872,1.612c0.968,0,3.55-0.321,3.872,0
		c1.613,2.259,2.903,4.194,1.937,7.099c-1.291,3.228-1.937,5.809-3.873,8.389c-0.967,0.968-1.29,2.582-2.259,3.55
		c-1.613,0.967-2.903,1.936-4.517,2.581c-3.227,1.613-6.453,2.58-9.68,2.58c-1.936,0.323-3.227,0-4.84-0.323
		c-0.968-0.32-3.872-0.32-4.195-1.289c-0.322-1.613,1.292-2.902,2.582-3.872c0.968-1.291-0.646-3.55-1.29-4.516
		c-0.323,0.32-0.646,0.966-0.968,1.289c0,0.323,0,1.291-0.323,1.613c-0.967,0.969-1.936,1.937-2.903,2.903
		c-0.323,0.323-0.968,0.646-0.968,0.969c0.323,0.646,0.645,1.613,0.323,1.937c-0.646,1.289-1.614,1.936-2.259,2.903
		c2.259,1.291,4.84,0,7.42,0.645c1.291,0.323,2.26,1.292,3.549,1.292c1.937,0,3.872,0.322,5.808,0.322c1.291,0,2.903,0,4.195,0
		c0.967,0,2.258-1.291,3.226-1.614c2.904,0,4.839-1.288,7.421-2.582c0.968-0.644,2.581-0.966,3.227-1.935
		c0.968-0.968,1.937-1.937,2.904-2.903c1.614-2.259,3.549-4.195,5.485-6.13c4.194-3.227,8.389-6.776,12.905-9.681
		c5.163-3.227,10.325-5.485,15.811-8.065c2.258-0.969,5.486-0.646,7.742-0.969c2.904-0.322,5.809-0.322,9.035-0.645
		c5.164-0.323,10.002-0.969,15.166,0c3.227,0.645,6.775,0.645,9.68,1.29c2.902,0.646,5.482,1.292,8.711,0.969
		c2.58-0.323,5.484,0.323,8.066,0.323c2.904,0,5.486-0.969,8.391-0.969c2.256-0.323,4.838,0,7.096,0.969
		c1.615,0.32,8.066,2.258,4.842,4.193c-2.582,1.29-5.486,1.936-8.066,2.259c-2.582,0.645-5.162,2.259-7.1,3.549
		c-2.58,1.613-4.518,3.227-7.098,4.195c-2.582,1.29-4.84,2.258-7.744,3.226c-4.84,1.936-10.002,3.871-15.486,4.841
		c-2.904,0.645-5.164,1.935-8.068,2.58c-1.289,0.322-2.904,0-4.193,0c-1.615,0-2.582,0.322-3.873,0.968
		c-1.289,0.646-2.902,0.646-4.193,0.646c-1.291,0.323-2.582,0.646-4.193,0.969c-2.582,0.967-5.486,1.29-8.066,1.614
		c-5.486,0.967-10.971,1.288-16.457,1.935c-2.581,0.323-5.162,0.323-8.066,0.323c-0.968,0-2.258-0.323-3.548-0.323
		c-1.291,0-2.582,0.323-3.872,0c-2.904-0.646-4.518,1.291-7.099,1.935c-1.613,0.323-2.581,0.969-3.548,1.937
		c-1.291,0.646,2.258,1.938,2.581,1.938c2.582,0.644,5.808,0.644,8.711,0.644c1.29,0,1.936,0.323,3.227-0.644
		c1.29-0.646,2.257-0.97,3.872-1.291c5.162-0.97,10.324-0.323,15.486,0c3.227,0.321,5.809,0.321,8.713,1.611
		c2.58,0.969,5.162,1.937,8.066,3.228c4.838,1.614,9.678,3.872,14.52,5.809c2.904,0.968,5.162,1.611,8.387,2.258
		c2.258,0.323,4.195,1.614,6.453,2.259c5.164,1.29,10.648,2.903,16.133,2.903c1.938,0,3.873,0,5.809,0s3.549-1.291,5.807-0.968
		c1.293,0.322,2.904,0,4.518,0.322c1.291,0.323,2.26,0.969,3.229,1.614C481.793,600.206,482.76,600.206,482.438,602.787z
		 M171.4,179.467c0,15.81,0,31.298,0,46.784c0,32.911,0,65.822,0,98.732c0,29.684,0,59.368,0,89.052c0,7.098,0,14.197,0,21.296
		c0,18.067,1.937,36.136,7.098,53.56c9.358,33.555,28.717,63.563,53.561,88.084c22.585,22.586,49.365,40.332,77.437,55.174
		c21.295,10.97,43.559,20.004,66.466,27.426c6.13,1.936,12.26,3.548,18.392,5.162c1.613,0.323,3.226,0.968,4.84,0.645
		c12.906-1.936,25.49-5.162,38.074-9.034c24.844-7.421,48.721-17.424,71.627-29.684c27.426-15.486,53.238-34.846,73.564-59.046
		c23.555-27.748,39.365-61.303,45.818-97.118c4.193-24.199,3.871-48.72,4.193-72.919c0.324-32.91,0.645-65.821,0.967-98.732
		c0.324-30.975,0.324-61.627,0.646-92.602c0-8.711,0.322-17.745,0.322-26.779c-9.033,0-17.744,0-26.779,0
		c-22.908,0-45.494,0-68.404,0c-30.973,0-61.947,0-93.244,0c-33.234,0-66.79,0-100.346,0c-30.328,0-60.335,0-90.665,0
		c-21.295,0-42.59,0-63.563,0C184.629,179.467,177.853,179.467,171.4,179.467z"/>
	<path fill-rule="evenodd" clip-rule="evenodd" fill="#045BAA" d="M443.721,605.368c-3.551-0.646-7.1-1.29-10.326-1.937
		c-3.871-0.645-7.422-1.935-10.971-2.903c-6.775-1.613-12.906-4.84-19.357-7.422c-4.841-2.257-10.972-2.903-16.457-2.58
		c0.646,1.613,6.453,2.257,7.744,2.58c2.259,0.646,4.517,2.259,6.775,3.229c4.84,2.58,9.357,5.482,14.52,7.743
		c2.582,0.968,5.486,2.902,8.389,3.225c2.582,0.646,5.486,0.97,8.389,0.97c3.227,0.321,7.42,1.289,10.648,0
		c2.58-1.292,5.484-0.97,8.389-1.938c0.324,0,0.324-0.967,0.324-0.967C449.205,605.046,446.625,605.046,443.721,605.368"/>
	<path fill-rule="evenodd" clip-rule="evenodd" fill="#045BAA" d="M281.102,550.517c-1.29-1.29-2.903-3.226-4.84-3.872
		c-0.967,1.291,2.904,3.551,3.55,4.518c1.29,0.968,5.485,5.162,4.517,7.422c-0.645-1.291-1.291-1.291-1.612,0
		c0,0.646,0.322,2.257,0.645,2.58c0.323,0.969,0.646,2.258,1.291,2.903c0.967,1.614,2.903,0.646,3.226-0.966
		c0.646-1.938-0.645-5.809-1.936-7.745C284.974,553.744,282.716,552.13,281.102,550.517"/>
	<path fill-rule="evenodd" clip-rule="evenodd" fill="#045BAA" d="M378.867,570.198c5.162-1.611,10.324-3.226,15.487-4.517
		c5.162-1.614,10.646-2.58,15.81-3.549c5.809-0.969,11.291-1.937,16.777-2.26c2.904-0.32,5.484-0.644,8.389-0.967
		c2.582-0.322,4.516-1.937,6.453-2.904c2.904-1.614,5.484-1.935,8.711-2.581c2.26-0.323,5.484,0.323,7.422-0.323
		c0.324-0.321,1.936-0.645,1.613-0.968c0-0.968,0-0.968-0.967-0.968c-1.613,0-2.904,0-4.518,0c-2.582,0.323-4.84,0.968-7.42,1.291
		c-5.809,0.645-11.295,0-17.102,0.968c-5.164,0.646-10.326,1.29-15.166,2.581c-6.131,1.937-12.906,3.228-18.713,5.809
		c-6.13,2.58-12.261,5.485-18.069,8.065C377.898,570.521,378.221,570.521,378.867,570.198"/>
	<path fill-rule="evenodd" clip-rule="evenodd" fill="#045BAA" d="M180.435,374.026c0-73.242,59.691-132.934,132.933-132.934
		c32.265,0,63.24,11.939,87.439,33.233c28.717,25.167,45.172,61.627,45.172,99.7s-16.455,74.532-45.172,99.698
		c-24.199,21.296-55.174,33.234-87.439,33.234C240.126,506.959,180.435,447.27,180.435,374.026 M174.626,374.026
		c0,76.468,62.272,138.417,138.741,138.417c33.557,0,66.144-12.261,91.313-34.523c30.006-26.135,47.107-64.207,47.107-103.894
		s-17.102-77.76-47.107-103.895c-25.168-22.263-57.756-34.523-91.313-34.523C236.899,235.608,174.626,297.559,174.626,374.026z"/>
	<path fill-rule="evenodd" clip-rule="evenodd" fill="#045BAA" d="M249.482,280.779c1.936-1.613,2.581-2.258,4.84-2.903
		c0.645-0.322,1.936,0.322,1.613,0.967c-0.323,0.969-1.291,1.614-1.613,2.26c-0.646,2.259-1.291,4.194-2.582,6.13
		c-0.968,0.968,0.322,0.968-1.291,1.614c-1.291,0.322-1.614,0.645-2.582,1.29c-0.646,0.322-1.613,0.968-2.259,0.968
		c-0.968,0-1.936-1.29-2.903-1.29c-0.323,0-1.937,0.322-1.937-0.646c0-0.969,0.968-1.613,1.614-2.259
		c1.613-1.937,3.549-0.323,5.162-0.968C249.16,285.297,249.16,282.393,249.482,280.779"/>
	<path fill-rule="evenodd" clip-rule="evenodd" fill="#045BAA" d="M238.512,289.491c0.646,0,1.292,0.323,0.323,0.968
		C238.189,290.781,237.544,289.814,238.512,289.491"/>
	<path fill-rule="evenodd" clip-rule="evenodd" fill="#045BAA" d="M293.686,323.37c-0.646,1.29-0.968,1.936-0.646,3.549
		c0.322,1.613,0.646,1.936-0.323,3.549c-0.323,0.968-0.645,3.227-2.259,2.904c-1.613,0-2.259,0.646-2.904-0.646
		c-0.645-1.291,0-1.936,0.969-1.936c1.613,0,0.967-1.937,0.646-2.904c0-1.29-0.323-2.258,0-3.872
		c0.322-1.29,0.645-1.612,2.259-2.259C292.395,321.434,294.654,321.434,293.686,323.37 M280.457,324.66
		c-1.29,1.613-4.84-1.612-6.776-1.29c-0.967,0-2.903-0.322-2.581-1.614c0.323-0.645,0.969-2.581,1.936-2.903
		c0.645-0.646,2.259-1.613,2.904-1.291c0.646,0.646,0.646,0.646,0.969,1.613c0,0.646,0.646,0.323,1.291,0.323
		c1.936,0,1.936,0.323,2.581,1.936C281.424,323.048,281.424,323.37,280.457,324.66z M274.327,294.009
		c0.968,0,0.968,0.646,0.322,0.968C274.004,295.621,273.358,294.331,274.327,294.009z M402.742,277.23
		c-2.259-1.936-4.194-3.227-6.453-4.518c-2.581-1.613-4.195-3.871-6.453-5.484c-0.968-0.646-1.936-1.613-2.904-2.581
		c-0.646-0.969-2.258-0.969-2.903-1.936c-2.582-1.937-4.195-2.904-7.422-3.228c-1.29,0-2.258-0.322-3.549-0.322
		c-1.936,0-2.258,0.322-3.871,1.291c-0.323,0.322-1.291,0.322-1.937,0.322c-0.322,0-0.645,1.291-0.645,1.613
		c-0.323,0.968-0.646,2.582-1.614,3.549c-0.645,0.969-1.291,1.936-2.581,1.936c-1.613,0-2.903,0-4.517,0.323
		c-1.291,0.322-2.582,0.322-4.195,0.646c-0.967,0-2.258,0.967-3.227,0.967c-1.291,0.323-3.226,0.969-4.517,0.646
		c-1.29-0.322-2.904-0.322-4.194-0.322c-1.936-0.323-2.258-0.323-3.549,0.968c-0.968,0.969-1.936,2.259-2.904,2.904
		c-2.903,1.291-5.162,2.904-7.744,3.872c-1.613,0.646-2.904,0.967-3.871,1.936c-1.936,1.291,0,1.612-0.323,3.227
		c-1.291,0-1.936-0.968-2.581-1.614c-0.323-0.645-0.967-2.581-1.291-2.581c-1.291,0.323-1.936,0.646-2.581,1.614
		c-0.646,1.613-0.968,1.29-2.582,0.967c-2.258-0.645-4.517,0-6.775,0c-1.291,0-4.194-0.967-4.84-0.321
		c-0.968,0.968-1.936,0.968-3.227,0.968c0-0.968,0.323-2.581-0.322-3.228c-0.968-1.289-1.613-1.935-2.259-3.226
		c-1.613-2.904-3.226-3.549-6.13-3.549c-1.613,0-2.258,0-3.227-0.969c-0.645-0.646-2.903-0.968-3.548-0.322
		c-0.968,0.968-1.613,1.614-2.904,2.259c-0.646,0-0.967,0.646-1.29,0.968c-0.646,0.322-1.613,0-2.258,0.322
		c-0.969,0.646-1.614,1.614-2.904,1.614c-1.614,0-2.904,0.322-4.517,0.646c-0.968,0.322-1.936,0.322-3.227,0.322
		c-1.613,0-2.259,1.29-3.228,2.258c-0.967,1.291-0.967,1.937-0.967,3.227s1.936,1.29,2.904,1.29c0.646,0,1.291-0.321,1.291,0.646
		c0,0.323,0,0.969,0,1.614c0,1.29-1.613,1.936-1.613,3.227c0,2.259,5.807,0.968,7.098,0c0.323-0.322,0.323-1.291,0.645-1.613
		c0.323-0.646,0.968-0.969,1.292-0.969c1.29-0.645,1.612-2.581,2.258-3.549c1.291-1.614,4.517-3.872,6.453-4.517
		c0.646,0,3.227-0.323,3.227,0.645c0,0.969-0.646,2.904-1.937,3.55c-0.645,0.322-2.581-0.646-3.549,0
		c-0.968,0.967-1.937,0.322-2.904,1.936c-0.322,0.968-0.645,0.968,0,1.613c0.323,0.322,0.646,1.613,0.646,1.613
		c1.291,0,2.581,0,3.872-0.322c1.291-0.323,2.581-0.969,3.872-0.969c1.613,0,2.581,0,1.613,1.613
		c-1.613,1.937-5.162,0.969-7.098,1.614c-1.613,0.645-2.904,0.967-4.195,1.29c-1.613,0.323-2.581-0.323-3.549,0.646
		c-1.29,0.968-2.258,1.936-3.226,2.904c-0.646,0.646-2.904-0.646-3.549-1.292c-2.904-1.289,0-5.162-1.614-6.775
		c-0.646-0.322-2.904,0-3.872,0c-1.291,0-2.259,0-3.55,0.646c-2.258,1.614-4.517,3.227-7.098,3.872
		c-1.291,0.323-2.258,0.646-3.226,1.291c-0.968,0.322-3.227-0.322-4.194-0.322c-0.969,0-2.259,0-3.228,0
		c-1.936,0-1.614,0.968-2.903,2.581c-0.323,0.967-1.291,2.258-1.936,2.904c-0.968,0.967-1.613,2.258-2.582,3.226
		c-0.645,0.968-1.936-1.291-2.582-1.613c-0.967-0.323-2.904,0.646-3.548-0.323c-0.969-0.967-1.937-1.289-3.227-0.322
		c-0.969,0.968-1.937,1.614-2.259,3.227c0,1.291-0.323,1.937-1.291,2.903c-0.968,0.646-2.581,1.614-1.937,2.904
		c0.646,1.291,0.646,2.258,0.646,3.872c0,1.613,2.582,1.29,3.549,1.29c1.937,0,3.873,0.323,5.485,0.646
		c2.259,0.323,1.936-0.646,2.904-1.936c0.646-0.646,1.291-0.968,1.614-1.614c0.322-0.644-0.646-0.967,0.322-0.967
		c1.291-0.322,2.904-0.322,3.872,0.323c0.645,0.644,2.581,0.967,3.549,0.644c0.646-0.644,2.904-0.644,3.55,0
		c0.967,0.969,1.613,2.261,2.581,3.228c0.645,0.646-0.323,2.581,0,3.549c0,1.291,0,1.613,0.967,2.259
		c0.646,0.646,1.291,1.613,0.967,2.259c-0.322,1.613-0.322,1.937-1.29,2.903c-0.323,0-0.323,1.291-0.323,1.936
		c2.259-0.321,2.904-0.645,4.517-2.257c0.323,0.645,0.323,1.29,0.646,1.936c2.259-1.936,1.936-3.873,1.936-6.776
		c0-0.968-1.613-1.613-1.613-2.903c0-0.646,0-0.969,0-1.613c0-1.291-0.323-1.614,0.967-1.614c2.904,0,2.904,4.195,2.904,6.131
		c0,2.581,0,5.162-0.645,7.421c1.613,0,5.162-0.323,5.807-2.259c0-0.645-0.646-1.936-0.646-2.903c0-0.646,1.613-0.322,2.258-0.322
		c-0.322,1.613-0.645,2.259-0.645,3.871c0,0.646-0.645,0.646-0.645,1.29c0.322,0.323,0.322,1.614,0.322,1.937
		c0.646,0.968,2.581,0.968,3.548,1.613c0.646,0.646,0.646,0.968,0.969,1.936c0,0.969,0.646,0,1.29,0.323
		c0.646,0.322,2.259,1.936,1.936,2.581c-0.322,0.968-0.967,2.582-1.936,3.228c-0.967,0-2.904-0.646-3.872-0.646
		c-1.29-0.646-2.581-0.969-3.872-1.937s-1.291-1.291-3.227-1.937c-0.968-0.645-2.258-0.645-3.549-0.645
		c-0.322,0-3.226,0.322-3.226,0c-0.645-1.291-1.291-2.581-2.258-3.55c-1.291-1.29-5.486-0.968-5.486-3.871c0-0.646,0-1.29,0-1.936
		c0,0,0.968,0,1.291,0c0.645,1.29,0.967,2.581,1.936,3.549c1.29-0.968,0.646-2.259,0-3.227c0-0.646-0.323-0.968-0.969-1.291
		c-0.967-0.646-0.644-0.646-1.613-0.646c-0.968,0,0,0.646-1.29,0c-0.323,0-0.646-0.645-0.969-1.29
		c-0.322-0.969-0.322-0.969-0.968-0.969c-0.967-0.322-1.29-1.29-1.935-1.613c-0.646-0.322-2.259,0-3.228,0
		c-1.613,0-3.548-0.322-5.162-0.322c-0.968,0-2.258,0.322-3.227,0c-1.612-0.968-2.903-1.613-4.517-2.259
		c-0.323-0.321-1.936-1.613-2.259-1.29c-0.646,0.322-1.29,0.969-2.258,1.29c-2.904,2.259-6.13,4.194-9.035,6.453
		c-4.194,2.904-8.711,5.485-11.938,9.357c-2.258,2.581-4.839,5.485-7.097,8.066c-0.969,1.612-0.969,4.84-1.292,6.775
		c-0.323,2.904-0.967,5.809-1.291,8.711c-0.322,1.292-0.967,2.904-1.291,4.195c-0.323,0.645,0.645,1.936,0.968,2.903
		c0.968,2.582,1.613,5.809,2.581,8.39c0.968,1.29,1.613,2.904,2.258,4.517c0.323,0.969,0.323,2.581,0.323,3.872
		c0,1.613,0,1.613,1.291,2.904c1.291,1.29,1.614,0.967,3.549,0.323c1.937-0.323,1.937-0.646,3.549,0.644
		c0.968,1.291,1.936,0.969,3.55,1.291c1.29,0,7.098-0.646,8.067,0.323c0.967,0.646,1.612,1.936,2.581,2.581
		c0.968,0.645,3.549,1.29,4.195,2.258c0.322,0.646,0,3.549,0,4.518c0,1.291,0,1.936,0.645,3.227c1.291,2.581,2.259,5.485,3.55,8.39
		c0.645,1.935,2.581,4.517,2.581,6.775c0,1.289,0,2.903,0,4.517c0,1.291-0.968,2.904-1.291,4.194c-0.646,0.968,0,1.291,0.646,2.261
		c0.967,1.935,1.936,3.548,2.904,5.162c0.967,1.935,1.613,3.869,2.581,5.807c2.258,5.484,4.517,11.293,7.098,16.777
		c1.291,2.581,2.581,5.162,3.872,7.743c0.323,0.646,2.259,1.29,2.904,1.29c1.291-0.32,2.258-1.935,3.226-2.257
		c2.904-1.291,5.485-2.904,8.389-4.195c2.259-1.29,2.259-4.516,2.581-6.776c0.645-1.613,0.645-1.613,1.936-2.258
		c2.581-0.967,3.872-2.581,2.904-5.162c-0.323-0.645-0.968-1.291-0.968-1.937c-0.646-0.968-0.323-2.259-0.323-3.549
		c0-2.581,1.613-3.228,3.227-4.839c2.259-2.259,2.259-3.551,2.259-6.453c0-3.228,0-6.775,0-10.003c0-1.289-3.873-4.84-2.581-6.13
		c1.613-1.614,3.227-3.549,5.163-5.162c4.194-4.195,8.388-8.391,12.26-13.229c1.614-1.936,2.582-4.84,3.228-7.099
		c0.322-1.29,0.322-2.581,1.29-3.549c0.323-0.646,2.581-3.227,1.292-3.55c-2.904-0.645-6.776,0.969-8.711,2.582
		c-0.969,0.322-3.55,0-4.195-0.322c-2.581-1.291-2.581-4.519-4.194-6.454c-0.646-0.646-1.613-2.581-2.582-3.226
		c-0.322,0-1.613,0.322-1.936,0c0,0,0-1.937,0-2.259c0-2.581-1.613-5.162-2.258-7.421c-0.323-1.614-0.968-2.259-1.613-3.55
		c-0.968-1.29-0.646-2.581-0.646-3.871c0-1.291,0-2.259,0-3.55c0-0.968,1.936-2.582,2.904-1.937c1.29,1.292,1.613,5.486,1.936,7.422
		c0.968,2.904,1.613,5.485,2.904,8.066c0.645,1.29,1.613,1.613,2.904,2.581c0.968,0.646,0.968,1.937,0.968,3.227
		c0.645,1.936,0.968,3.871,1.613,5.809c0.322,1.612,1.614,1.612,3.227,1.936c0.969,0.322,2.904-0.646,3.872-0.969
		c1.291-0.323,2.582-0.967,3.872-1.29c2.259-0.646,4.518-2.903,6.776-4.194c1.291-0.646,2.258-0.646,3.872-0.968
		c0.646,0,1.936-2.259,2.259-2.904c0.646-0.968,1.936-1.613,2.258-2.582c0-0.645,1.292-3.548,0-3.548c0,0-1.613,0.322-1.613,0
		c-0.322-0.969-0.646-1.937-1.29-2.904c-0.969-0.969-4.517-0.646-6.131-0.646c-1.936,0-1.936,0-2.904-1.613
		c-0.967-1.29-1.29-2.581-1.936-3.872c-0.322-0.968-0.322-1.291-0.322-2.258c0.645,0.322,2.258,0.645,2.581,1.612
		c0.322,1.291,0.322,1.937,0.322,3.55c1.291-0.322,2.259-0.322,3.55-0.322c1.613,0,1.936,0,3.226,1.29
		c0.323,0.322,1.614,1.936,2.259,1.936c1.613,0.323,2.904,0.646,4.194,0.646c2.259,0.322,4.195-0.646,6.454-0.323
		c1.614,0.323,1.937,0.323,3.227,1.612c0.969,0.969,1.291,1.936,1.937,2.904c0.967,1.613,0.967,1.936,2.903,2.259
		c1.614,0,1.291,0,1.614,1.613c0.323,2.259,0,5.485,1.29,7.421c1.613,2.581,2.904,4.517,4.517,6.776
		c1.613,1.936,2.581,3.872,4.194,5.484c1.291-1.612,2.904-3.549,2.904-5.808c0-0.968,0.646-1.613,1.292-2.258
		c0.968-0.969,0.968-1.938,0.968-2.904c0-2.903,0.645-4.194,2.581-6.131c1.614-1.613,3.55-2.903,5.163-4.194
		c1.613-1.936,3.228-2.582,5.808-2.582c1.291,0,1.935,0.323,2.581,1.292c0.322,0.967,0,2.258,0.646,3.226
		c0,0.323,0.323,0.969,0.967,1.291c0.323,0,0.968,0.323,1.291,0.646c0.646,0.646,0.968,2.259,1.292,3.227
		c1.29,2.904,2.903,3.227,4.517,0.646c0.645,1.936,0.967,4.517,2.258,6.13c1.291,1.937,1.291,4.518,1.936,6.775
		c0.645,2.259,1.613,4.84,2.904,6.775c0.967,1.937,2.259,4.518,4.84,5.162c0.967,0.323,1.935,0,1.291-1.29
		c0-0.322-0.969-0.645-0.969-0.968c0-0.645-0.322-1.613-0.322-2.259c-0.323-2.258-0.968-4.517-2.581-6.452
		c-0.646-0.969-1.937-1.613-2.904-2.259c-0.646-0.646-0.969-1.937-1.291-2.904c-0.645-2.259,0-3.871,1.937-5.807
		c1.613,1.612,3.872,5.484,6.13,5.807c1.613,0.323,2.258-1.613,3.225-2.581c0.323-0.323,0.969-0.323,1.292-0.645
		c0.969-0.646,1.29-0.969,1.613-1.938c0.969-3.226-0.644-6.129-1.613-8.711c-0.645-1.936-0.968-2.904-0.968-5.163
		c0-0.646,2.258-2.581,2.904-3.226c0.646,0.968,1.614,1.291,0.646,1.937c-0.646,0.644-0.323,1.612,0.322,2.258
		c0.646,0.646,1.936-0.646,2.259-0.969c0.322-0.322,0-1.935,0-2.581c0-1.612,1.613-3.226,3.226-3.549
		c1.291-0.322,2.904-2.903,3.872-3.871c0.645-0.646,1.613-3.227,1.613-4.519c0-1.936,0.646-4.193,0.323-5.807
		c-0.646-3.872-1.291-7.744-3.872-10.648c0.322-0.645,1.613-1.612,0.968-2.58c-1.291-0.968-2.259,0.323-3.227,1.29
		c-0.322-0.646-1.613-2.581-0.645-3.227c0.323-0.322,0.968-0.645,1.613-1.29c0.968-0.969,0.646-0.646,1.613,0.322
		c0.968,0.646,1.614,1.613,2.581,2.259c1.292,0.969,0.969,2.581,1.292,3.872c0,0.645,0.646,0.968,0.967,1.613
		c0.646,0.322,0.646,0,1.291-0.646c0.645-0.646,1.936-1.614,1.936-2.581c0-0.969,0.646-2.904-0.322-3.872
		c-1.291-1.29-1.614-1.937-1.936-3.872c-0.646-2.259-0.323-5.484,1.291-7.099c1.613-1.29,1.613-1.29,0.646-2.904
		c0-0.321-0.969-0.967-0.646-1.289c0.322-0.646,0.322-0.969,0.322-1.937c0-2.581,1.614-4.518,0.646-7.421
		c-0.968-2.259-2.258-5.485-3.873-7.099c-0.967-0.968-1.936-1.936-2.903-2.904c-0.969-0.645-2.581-1.613-3.227-2.581
		c0-0.323,0.322-1.29,0-1.613c0-0.646-0.968-0.969-1.291-1.29c-0.646-0.968-2.258,0.645-3.227,0.645
		c-0.645,0,0.323-3.226,0.323-3.549c0.323-1.29,1.613-2.258,2.582-2.581c1.613,0,2.581,0,3.871-1.291
		c0.969-0.968,0.646-1.935,1.614-2.903c1.29,1.613,2.257,2.903,3.226,4.84c0.322,0.323,0.646,0.968,0.968,1.613
		c0,0.322,0.968,0,0.968,0.322c1.613,0.645,0.968,1.291,2.904,1.291c1.935,0,3.872,1.613,5.808,1.613
		c1.611,0,1.936,0.645,1.936-0.968C403.711,278.843,403.387,278.198,402.742,277.23z"/>
	<path fill-rule="evenodd" clip-rule="evenodd" fill="#045BAA" d="M242.062,279.489c0.323,0,0.968-0.968,1.29-0.646
		c0.646,0,1.291,0.323,1.937,0.323c1.613,0.646,1.935,0.969,1.935,2.258c0.323,0.969,0.646,1.938-0.322,2.582
		c-0.968,0.322-2.259,0.646-3.227,0.968c-0.967,0-2.582,0-3.226,0.323c-1.291,0.968-1.937,0.968-2.583-0.323
		c-1.29-2.258,0.646-1.936,1.937-2.903C240.449,281.424,241.416,280.135,242.062,279.489"/>
	<path fill-rule="evenodd" clip-rule="evenodd" fill="#045BAA" d="M277.875,417.585c0.323-1.614,0-1.936,1.614-2.581
		c0.967,0,2.258,1.613,2.582,2.258c1.29,2.903,0.967,5.164,0.646,8.066c0,0.968-1.292,2.26-1.937,3.227
		c-0.645,0.968-0.968,1.613-1.291,2.902c-0.323,1.293-0.968,2.582-0.646,4.195c0,0.646,1.292,2.581,0.646,3.227
		c-0.323,0.322-1.936,2.259-2.581,1.614c-0.969-0.968-1.936-1.614-2.904-2.906c-1.613-1.611-0.968-4.837-0.968-7.097
		c0-1.291,0.323-2.581-0.322-3.871c-0.323-0.97,0-2.259,0.322-3.551c0.323-0.968,0.968-2.581,1.937-2.903
		C276.262,419.52,276.585,418.23,277.875,417.585"/>
	<path fill-rule="evenodd" clip-rule="evenodd" fill="#045BAA" d="M329.5,380.802c0.323-0.322,2.259-2.903,2.581-2.903
		c0.969,0.322,0.646,2.903,0.646,3.872c-0.323,0.967-0.968,3.549-2.582,2.904C329.178,384.029,329.5,381.771,329.5,380.802"/>
	<path fill-rule="evenodd" clip-rule="evenodd" fill="#045BAA" d="M352.409,384.996c2.581,0,4.516,0,6.775,1.291
		c1.614,1.29,3.227,3.227,4.84,4.84c1.29,1.612,3.226,2.903,4.517,4.517c0.968,0.969,0,4.518-0.323,5.808
		c-0.646,1.936-3.548-3.226-3.871-3.871c-0.968-1.937-2.582-3.55-3.873-5.486c-0.322-0.967-3.226-4.193-4.194-4.193
		c-0.646,0-2.259,0-2.904-0.323C352.731,387.255,351.763,385.642,352.409,384.996"/>
	<path fill-rule="evenodd" clip-rule="evenodd" fill="#045BAA" d="M370.477,398.226c0.646,1.612,1.291,2.904,1.613,4.193
		c0.323,0.968,3.549,1.292,4.195,1.292c0.967,0,2.903,0,3.548,0.968c0.967,0.968,0.323,3.226-0.967,2.902
		c-1.292-0.645-1.614-1.613-3.227-1.613c-1.614,0-2.582-0.645-4.195-1.289c-1.291-0.323-2.581-0.968-1.291-2.581
		C370.8,401.13,369.51,399.516,370.477,398.226"/>
	<path fill-rule="evenodd" clip-rule="evenodd" fill="#045BAA" d="M382.092,407.581c1.291-0.321,1.613,0,2.904,0.646
		c0.646,0.322,2.259,0.322,2.904,0.322c1.29,0,2.257,0,3.226,0.325c1.613,0.644,1.613,0.967,0.322,1.935
		c-0.967,0.968-4.517-0.321-5.807-0.968c-0.968-0.323-1.613-0.646-2.904-0.646C381.77,409.195,380.801,407.904,382.092,407.581"/>
	<path fill-rule="evenodd" clip-rule="evenodd" fill="#045BAA" d="M395.967,410.809c0.646,0,1.935-0.321,2.258,0.321
		c0.646,0.97,0.969,1.938-0.646,2.26c-0.967,0-1.29-0.321-2.259-0.646c-1.29,0-1.612,0.646-2.581,0.97c-0.645,0-1.613,0-2.258,0
		c-0.646-0.323-1.614-1.937-0.324-1.937C392.095,411.776,394.354,412.1,395.967,410.809"/>
	<path fill-rule="evenodd" clip-rule="evenodd" fill="#045BAA" d="M374.025,386.61c1.937-0.323,3.873-0.646,5.486-2.259
		c0.968-0.646,2.259-1.614,2.904-2.26c0.967-0.967,1.613-2.58,2.903-1.936c0.645,0,3.226,1.292,2.904,1.614
		c-0.322,1.936-0.967,1.29-2.259,2.259c-0.967,0.646-0.645,1.612,0,2.581c1.614,1.612,0.968,1.935-0.322,3.549
		c-0.323,0.645-1.937,2.258-1.937,2.903c0,1.291-0.968,1.613-1.29,2.904c-0.323,1.29-1.291,1.613-1.936,0.646
		c-0.968-0.969-1.936-1.291-3.227-1.291c-0.646-0.323-2.904,0.646-3.228,0.322c-0.644-0.322-0.967-2.581-1.29-3.227
		c-0.323-0.968-0.968-1.936-0.646-3.226C372.413,387.577,372.413,387.255,374.025,386.61"/>
	<path fill-rule="evenodd" clip-rule="evenodd" fill="#045BAA" d="M396.613,390.804c-2.259-0.322-5.164-0.322-7.099,0.969
		c-1.936,1.612-2.904,3.549-2.904,5.808c0,0.968,0,2.581,0.322,3.55c0.646,0.645,2.259,2.257,2.904,1.936
		c2.258-0.646-1.936-3.55-0.646-5.485c0.967,0.322,0.967,0.968,1.291,1.936c0.645,0.969,0.967,1.289,1.936,1.614
		c0.322,0,2.258-0.325,1.936-0.969c-0.646-0.968-0.969-1.291-1.936-1.613c-2.26-1.291,1.936-1.291,2.582-1.936
		c1.936-1.614-2.26-1.291-3.227-1.614c0.322-1.29,1.613-1.936,2.904-1.936C395.321,392.739,398.225,391.772,396.613,390.804"/>
	<path fill-rule="evenodd" clip-rule="evenodd" fill="#045BAA" d="M398.548,384.996c0.646-0.321,2.258,0.323,2.258,1.291
		c0,0.645-0.323,1.29-0.323,1.936c0,0.969,1.292,0.322,1.615,0.969c0.645,0.322-0.322,1.936-0.969,2.258
		c-0.646,0.968-3.549-0.968-4.194-1.936C395.967,387.9,397.902,386.61,398.548,384.996"/>
	<path fill-rule="evenodd" clip-rule="evenodd" fill="#045BAA" d="M393.708,374.349c-0.323-0.968,0.968-2.581,1.936-2.258
		c0.969,0.322,1.291,2.258,0.646,3.227c-0.969,1.29,0.967,1.936,0.967,3.227c0,1.29,1.292,3.227-0.321,3.548
		c-1.614,0.646-1.936-0.644-3.227-1.29c-0.646-0.322-0.969-0.322-1.936-0.322c-0.323,0-0.323,0.646-0.969,0.646
		c-1.29,0-1.613-1.936-0.646-2.259c1.291-0.646,2.26-1.291,3.55-0.322c0.322-0.646,0.968-1.291,0.968-2.259
		C394.354,375.64,394.031,375.317,393.708,374.349"/>
	<path fill-rule="evenodd" clip-rule="evenodd" fill="#045BAA" d="M390.804,369.832c0.969,0,2.905,2.259,1.291,2.259
		C391.127,372.413,389.514,370.478,390.804,369.832"/>
	<path fill-rule="evenodd" clip-rule="evenodd" fill="#045BAA" d="M393.708,367.251c0.322,0.322,1.612,1.612,1.291,1.936
		c0,1.291-1.291,0.646-1.937,0.646C391.449,369.832,392.095,365.314,393.708,367.251"/>
	<path fill-rule="evenodd" clip-rule="evenodd" fill="#045BAA" d="M388.868,357.248c1.29,0,2.259,0.646,2.904,1.613
		c0.967,1.291,0,1.613-0.969,2.581c-0.646,0.646,0.646,2.582,0.969,2.904c0.322,0.646,0.646,2.904-0.323,2.904
		c-0.967-0.322-2.258-0.646-3.227-1.613c-0.967-0.968-0.322-1.613,0-2.581C388.545,361.12,386.287,357.894,388.868,357.248"/>
	<path fill-rule="evenodd" clip-rule="evenodd" fill="#045BAA" d="M390.482,345.633c0-1.29,0-1.613,0.967-2.582
		c0.646-0.967,1.614,0.646,1.614,1.292c0.646,1.29,1.291,3.226,0.968,4.84c-0.646,1.936-2.258,2.259-3.873,0.968
		C389.514,349.827,390.482,346.278,390.482,345.633"/>
	<path fill-rule="evenodd" clip-rule="evenodd" fill="#045BAA" d="M404.355,390.159c-1.936-3.549,1.291-3.228,3.871-2.904
		c1.291,0.322,1.291,0.968,1.938,2.259c0.322,0.322,0,0.646-0.324,0.968c-0.645,1.291,0,1.612,0.969,2.258
		c1.936,1.291,4.518-2.58,6.453-0.967c2.258,1.612,3.549,4.517,5.807,5.808c0.969,0.646,2.258,1.29,3.229,1.936
		c0.322,0.322,0.645,1.289,1.291,1.289c0.643,0.646,0.967,0.325,1.613,0.97c1.291,2.581,2.58,5.162,3.871,7.421
		c0.645,1.292,3.549,6.454,1.291,7.422c-1.615,0.321-2.258-2.582-2.582-3.549c-0.322-1.292-2.258-0.325-3.551-0.646
		c-1.289-0.646-1.934-3.227-3.547-3.548c-1.938-0.325-2.26,2.902-4.518,1.613c-1.613-1.292-2.26-2.906-4.193-3.551
		c-1.615-0.644-4.195-1.613-2.904-3.55c0.32-0.968,0.32-1.612,0.32-2.582c-0.32-1.289-0.32-1.289-1.289-2.257
		c-0.969-1.291-2.904-2.259-4.84-2.259c-0.645-0.322-1.938-0.322-2.58-0.646c-0.646-0.646-0.969-1.613-1.613-2.259
		c-0.646-0.322-1.615-0.968-0.324-1.612c0.645-0.323,1.613-0.969,2.58-0.969C405.322,390.481,405,390.159,404.355,390.159"/>
	<path fill-rule="evenodd" clip-rule="evenodd" fill="#045BAA" d="M434.363,393.708c0-0.323,0-0.646,0-0.969
		c2.258,0,5.807,2.259,5.162,4.518c-0.322,0.646-1.291,1.291-1.938,1.291c-0.967-0.322-0.645-0.968-1.289-1.613
		c0-0.646,0-1.613-0.646-1.937C435.008,394.676,434.363,394.354,434.363,393.708"/>
	<path fill-rule="evenodd" clip-rule="evenodd" fill="#045BAA" d="M434.039,398.548c-0.322-0.322,0-0.646,0-0.968
		c1.291,0,1.291,1.29,1.291,2.258c0,0.646,0,0.967-0.322,1.292c-0.322,0.645-0.969,0.645-1.291,0.968
		c-0.645,1.289-2.258,0.968-1.611-0.646C432.426,400.161,434.363,400.484,434.039,398.548"/>
	<path fill-rule="evenodd" clip-rule="evenodd" fill="#045BAA" d="M439.525,398.87c2.258-0.645,2.258,4.195,0.645,5.162
		C437.912,405.323,437.912,399.838,439.525,398.87"/>
	<path fill-rule="evenodd" clip-rule="evenodd" fill="#045BAA" d="M440.17,405.968c0.646-0.645,0.969-1.289,1.938-1.289
		c0,0.968,0,1.935,0,2.902c0,0.646-0.648,2.906-1.291,3.228c-1.291,0.968-0.971-1.291-1.291-1.935
		c-0.322-0.97-0.646-0.97-0.322-1.614C439.525,406.613,439.846,405.968,440.17,405.968"/>
	<path fill-rule="evenodd" clip-rule="evenodd" fill="#045BAA" d="M400.806,413.713c0.969,0.322,2.26,0.322,3.227,0.645
		c1.613,0,2.902-0.322,4.193-0.322c1.613,0,1.291,0.969,1.291,2.582s-0.967,1.613-1.936,2.902c-1.936,2.26,0.969,4.518,2.258,6.13
		c0.969,1.292,1.615,1.292,2.582-0.321c0.967-1.291,1.613-1.936,2.26-3.549c0-0.968,0.967-1.938,1.291-3.228
		c0.32-0.967,0.643-2.902,1.934-3.871c3.229-1.938,2.26,5.161,2.26,7.099c0,1.289,0,1.936,0.645,3.228
		c0.969,1.612,0.969,3.226,0.645,4.516c-0.645,2.581,0,5.162,0.646,7.743c0.645,2.582,0.645,4.841,0.322,7.744
		c0,1.29-0.322,2.581-0.969,3.871c-0.32,1.291-1.289,1.937-1.936,3.228c-0.645,1.29-1.289,2.581-1.936,3.549
		c-0.322,1.291-1.611,1.613-2.258,2.904c-0.645,0.967-1.291,2.258-1.938,3.548c-0.967,1.291-1.611,1.938-2.902,2.582
		c-1.936,1.613-3.551,3.549-6.131,4.518c-0.969,0.645-1.936,0.645-3.227,0.645c-1.613,0-2.904,0.646-4.194,0.646
		c-1.614,0-1.936,0-3.227-0.967c-0.646-0.646-0.969-2.581-0.969-3.551c0-2.581-0.322-5.485,0.323-8.066
		c-1.291,0.323-1.936,1.613-2.905,1.29c-1.613-0.967-1.29-1.935-1.936-3.225c-1.613-2.582-2.259-5.163-5.485-5.486
		c-5.485-0.644-10.325,0.646-15.809,1.614c-0.323,0-2.259-1.291-2.582-1.614c-0.968-0.969-1.614-2.257-0.968-3.55
		c0.646-0.968,1.613-1.935,1.936-2.902c0.323-1.613,0-2.904,0.323-4.517c0.323-0.969,1.292-1.613,1.936-2.905
		c0.323-1.289,0.646-2.581,1.291-3.87c0.968-2.26,2.581-3.874,4.84-4.841c2.582-0.968,4.84-1.936,7.098-3.228
		c0.646-0.321,1.614,0,1.937,0c0.645,0,0.968-0.645,1.291-1.289c0.968-0.967,2.258-1.613,2.903-2.581
		c2.259-2.26,4.517-2.26,7.422-2.905C396.935,417.585,398.548,415.004,400.806,413.713"/>
	<path fill-rule="evenodd" clip-rule="evenodd" fill="#045BAA" d="M391.449,474.048c1.291-0.323,1.614-0.323,2.259,0.323
		c0.322,0.323,0.322,0.968,0.322,1.291c0.323,0,1.29-0.323,1.613-0.646c0.646-0.321,1.936-1.291,2.904-0.968
		c0.968,0.323,0.968,1.291,0.322,1.938c-0.969,0.967-1.614,1.611-2.258,2.258c-0.646,0.645-0.969,2.258-1.613,2.581
		c-1.614,1.29-3.873,0.646-3.55-1.614c-1.613,0.646-2.904-0.644-3.227-1.935c0-0.969,1.936-2.904,2.904-3.228H391.449z"/>
	<path fill-rule="evenodd" clip-rule="evenodd" fill="#045BAA" d="M258.517,258.517c1.291,0,1.937,0,3.226,0.322
		c1.292,0.646,1.614,0.323,2.581-0.968c1.292,0.968,0.646,2.582-0.322,3.227c-1.613,1.614-2.581,1.937-4.517,1.937
		c-1.613,0-3.226,0-3.226-1.937C256.258,259.808,257.549,259.162,258.517,258.517"/>
	<path fill-rule="evenodd" clip-rule="evenodd" fill="#045BAA" d="M386.287,281.747c2.904,1.614,5.808,4.518,8.39,6.776
		c1.291,0.968,1.291,0.968,1.613,2.258c0,1.292,0.323,1.614,1.29,2.26c0.646,0.645,4.518,2.903,2.581,3.871
		c-0.967,0.646-4.517-0.968-5.161-1.291c-1.291-0.967-0.969-3.871-1.937-5.162c-1.936-3.227-5.808-4.517-7.744-8.066
		C385.642,282.07,385.964,282.07,386.287,281.747"/>
	<path fill-rule="evenodd" clip-rule="evenodd" fill="#045BAA" d="M404.355,282.716c0.645,0.322,3.871,1.936,1.936,2.258
		c-1.291,0-2.904,0.646-3.871-0.646C403.066,284.006,403.711,283.361,404.355,282.716"/>
	<path fill-rule="evenodd" clip-rule="evenodd" fill="#045BAA" d="M405.969,286.91c0.967,0.322,0.967,0.646,0.322,1.29
		c-0.645,0.646-1.936,0.323-2.58,0c-0.969,0-0.645-1.29,0-1.613C404.355,286.587,405,286.587,405.969,286.91"/>
	<path fill-rule="evenodd" clip-rule="evenodd" fill="#045BAA" d="M399.839,298.202c0.644,0.323,1.936,1.291,2.581,1.291
		c0.646,0.323,3.549-0.968,3.871,0c0.645,1.291,2.26,1.291,0.324,2.259c-0.646,0.646-2.582,1.291-2.904,2.259
		c-0.324,0.645-0.645,2.904-1.291,2.581c-1.614-0.645-1.614-2.581-1.937-4.194C400.161,301.752,396.29,298.525,399.839,298.202"/>
	<path fill-rule="evenodd" clip-rule="evenodd" fill="#045BAA" d="M405.969,304.333c0.967,0.646,0,2.259,0.322,3.227
		c0.645,0.969,1.936,0.646,1.936,1.937c0,1.29-0.322,2.903,0,3.871c0.324,0.969,0.324,2.904,0,3.872
		c0,0.322-0.322,0.968-0.322,1.291c-0.322,0.322,0.322,0.968,0,1.291c0,0.322-0.645,0.322-0.969,0.968c0,0.645-0.32,1.29-0.32,1.936
		c-0.324,1.29-1.293,0.646-2.582,1.29c-1.291,0.969-2.904,1.936-4.517,1.936c0.323,1.291-0.646,3.228-1.937,2.582
		c-0.967-0.646,0-2.903,0.322-3.549c0.646-1.29,1.614-2.259,2.581-3.55c0.646-0.968,1.937-0.968,3.228-0.968
		c-0.324-1.291-2.582-2.259-2.582-3.227s2.582-2.58,2.904-3.872c0.322-1.289-0.967-3.55-0.322-4.839
		C404.355,307.56,404.355,304.333,405.969,304.333"/>
	<path fill-rule="evenodd" clip-rule="evenodd" fill="#045BAA" d="M403.387,326.597c-1.289-0.323-4.838,1.936-3.547,2.581
		C401.129,329.823,404.033,328.21,403.387,326.597"/>
	<path fill-rule="evenodd" clip-rule="evenodd" fill="#045BAA" d="M398.871,330.146c-0.322-0.322-0.322-0.968-0.646-1.291
		c-0.646,0.646-2.904,3.227-1.936,4.194c0.967,1.291,1.29-0.645,1.612-0.968C398.225,331.436,399.839,331.113,398.871,330.146"/>
	<path fill-rule="evenodd" clip-rule="evenodd" fill="#045BAA" d="M420.166,263.034c2.58,0,4.193-0.646,6.131-2.581
		c0.967-1.291,1.291-1.937,2.904-2.26c0.967-0.322,1.934-0.645,3.225-1.29c1.291-0.323,2.582-0.646,3.873-1.291
		c1.289-0.645,1.613-1.29,3.227-1.936c2.258-0.645,4.516,0.322,7.1,1.291c1.611,0.645,5.162,0.967,5.807,2.903
		c0.643,1.613,0,2.259,0.643,3.55c0.971,0.968,1.615,2.258,1.293,3.55c0,0.321-0.646,0.645-0.646,0.967
		c0,0.969-0.322,1.614-0.322,2.581c-0.324,0.969-1.611,1.936-2.258,2.581c-0.969,0.969-1.613,1.613-2.904,1.613
		c-0.969,0-0.969-4.194-1.291-4.84c-0.645,0.323-1.291,0.323-1.613,0.969c-0.322-0.323-0.969-0.646-0.969-1.29
		c-1.289,0.645-2.256,1.29-3.547,1.612c-1.291,0.645-2.26,0.323-3.549,0c-2.904,0-5.486-0.322-8.391-0.322
		c-0.967,0-2.58-0.323-3.227-0.323c-0.645-0.322-1.613-0.967-1.936-0.322c-0.322,0.646-0.969,0.968-1.613,1.291
		c-0.322,0.645-4.195,0.321-4.84,0.321c-1.613,0-3.227,0-4.518-0.321C414.035,266.26,418.553,265.938,420.166,263.034"/>
	<path fill-rule="evenodd" clip-rule="evenodd" fill="#045BAA" d="M435.652,289.814c0.969,0.322,2.26,0.645,2.582,1.613
		c0.322,1.613-2.26,1.29-2.904,0.968c-0.645,0-2.904-0.646-2.582-1.614C433.072,289.491,435.008,289.814,435.652,289.814"/>
	<path fill-rule="evenodd" clip-rule="evenodd" fill="#045BAA" d="M430.168,292.396c0.967,0.322,1.613,0.322,2.58,0.967
		c0.969,0.969-0.643,1.938-1.613,1.614c-0.967,0-2.58,0.323-2.904-0.968C427.264,292.396,429.201,293.041,430.168,292.396"/>
	<path fill-rule="evenodd" clip-rule="evenodd" fill="#045BAA" d="M469.209,310.141c1.613,0.323,1.613,0.646,2.26,1.938
		c0.645,0.644,1.613,1.935,0.645,2.902c-1.613,0.646-1.936-1.613-2.258-2.259C469.209,311.755,468.24,311.109,469.209,310.141"/>
	<path fill-rule="evenodd" clip-rule="evenodd" fill="#045BAA" d="M482.76,268.842c0.646-0.969,0.646-1.29,1.613-0.969
		c0.969,0,1.291,0,1.615,0.646c0.967,1.613,1.934,2.904,0.967,4.518c-1.291,1.613-2.258,1.29-3.549,0
		C482.115,272.392,482.76,270.132,482.76,268.842"/>
	<path fill-rule="evenodd" clip-rule="evenodd" fill="#045BAA" d="M494.375,253.354c0.969-1.612,2.258-2.902,3.871-3.871
		c0.971-0.646,4.842-1.29,4.195,0.646c0,0.323-2.258,0.323-2.904,0.323c-0.645,0.322-1.291,1.29-1.611,1.935
		c-0.646,0.646-0.971,1.291-1.613,1.613C495.344,254.645,493.73,254.645,494.375,253.354"/>
	<path fill-rule="evenodd" clip-rule="evenodd" fill="#045BAA" d="M500.506,252.709c1.615-0.646,1.936-0.968,3.873-0.646
		c0.645,0,0.645-2.259,0.967-2.904c0.645-0.967,1.291-2.258,2.582-2.903c1.613-0.646,2.58-0.646,4.193-0.646
		c2.582,0,5.162-1.29,7.422,0.646c1.289,0.968,1.613,0.322,2.902,0.322c1.615-0.322,2.582-0.322,3.873,0.646
		c1.291,0.646,2.582,1.291,3.549,1.936c1.289,0.969,2.26,1.614,3.227,2.582c1.291,0.645,2.258,0.322,3.549,0.645
		c1.291,0.323,2.58,0.968,3.871,1.937c1.615,0.968,1.293,1.29,1.293,3.227c0.322,1.613,0.967,2.259,1.613,3.872
		c0.645,0.968,0,2.258,0.645,3.227c0.645,1.29,1.291,2.581,1.613,4.194c0.645,0.967,0.969,1.936,1.936,2.581
		s1.936,1.936,1.936,3.227c0,3.227-1.936,3.872-4.84,3.872c-2.58,0-5.162-0.646-7.42-1.613c-2.904-1.291-4.842-2.582-6.777-5.163
		c-0.967-0.646-1.936-1.613-2.902-2.581c-0.969-0.646-2.258-0.646-2.258-2.258c0-0.323,0.643-2.904-0.324-2.904
		c-1.613-0.323-2.904-0.646-4.518-0.968c-2.258-0.322-4.518-0.322-6.775-0.322c-1.289,0-3.227-0.323-3.871,0.645
		c-0.322,0.322,0,0.968-0.322,1.291c-0.324,0.323-1.613,0-1.938,0c0.324,4.194,4.518,1.936,6.777,2.904
		c2.58,1.29,5.484,1.612,7.742,2.257c1.613,0.646,1.938,0.646,2.904,1.937s1.613,2.259,2.904,2.904
		c1.291,0.322,2.58,0.646,3.871,1.291c1.615,0.322,1.938,1.613,0,2.258c-0.646,0.323-2.258,0-2.58,1.291
		c0,1.29,0.645,2.581,0.645,3.872c0,0.967-0.322,2.581-1.613,2.258c-1.613-0.322-2.58-0.646-3.871-1.291
		c-1.938-0.967-7.744,1.291-7.422-1.936c0-1.29,0.967-2.258,1.613-3.227c0.324-1.612-1.291-1.936-2.258-2.58
		c-1.291-0.646-2.258-0.646-3.871-0.969c-1.938-0.322-2.904-1.291-4.195-2.259c-0.322-0.646-1.291-0.646-1.291-1.29
		c-0.322-0.646-0.969-1.614-1.289-2.26c-0.969-1.936-1.615-2.257-3.873-2.58c-1.936,0-1.936-1.937-2.58-3.227
		c-0.324-0.968-0.324-1.613-0.646-2.259c0-1.29-0.324-0.646-1.291-0.968s-0.967-0.646-0.967-1.937c0-0.646-1.291-1.29-0.969-1.936
		c0.322-1.936,2.902-0.646,2.902,0.968c0.971-0.322,0.971-1.613,0.971-2.581S499.861,253.677,500.506,252.709"/>
	<path fill-rule="evenodd" clip-rule="evenodd" fill="#045BAA" d="M553.1,259.808c0.967-1.291,1.934-1.614,3.549-0.323
		c1.611,0.969,3.227,1.291,4.518,2.259c1.291,1.291,2.58,2.259,3.547,3.549c0.646,0.646,0.971,0.968,0,1.614
		c-0.322,0.322-1.613,0.646-1.934,0.646c-1.938-0.323-2.582-0.969-4.195-1.937c-0.967-0.645-0.646-1.291-1.613-1.613
		c-0.645-0.323-1.613-0.323-2.26,0c-1.611,0.646-2.902,0.646-3.871-0.968c0-0.322-0.322-1.937,0-1.937
		C551.809,260.775,552.775,260.775,553.1,259.808"/>
	<path fill-rule="evenodd" clip-rule="evenodd" fill="#045BAA" d="M492.117,261.098c0.646-1.613,0.967-2.581,2.582-1.613
		c0.967,0.323,0,2.259,0,3.228C493.408,262.712,492.117,262.389,492.117,261.098"/>
	<path fill-rule="evenodd" clip-rule="evenodd" fill="#045BAA" d="M487.922,265.938c0.646-0.967,1.613-1.936,2.26-2.581
		c0.969-0.968,2.902-0.968,2.26,0.646c-0.324,0.969-1.291,2.258-1.615,3.227C489.535,268.842,488.568,266.906,487.922,265.938"/>
	<path fill-rule="evenodd" clip-rule="evenodd" fill="#045BAA" d="M494.699,264.971c1.613-0.969,2.58,0.645,2.902,1.936
		c0.324,1.936-0.646,2.902-0.969,4.517c-1.289,0-2.258-1.291-3.225-2.581c-0.645-0.646,0.645-1.29,0.967-1.613
		c0.324-0.322,0-1.613-0.322-2.258C494.375,264.971,494.375,264.971,494.699,264.971"/>
	<path fill-rule="evenodd" clip-rule="evenodd" fill="#045BAA" d="M489.535,269.487c1.291-0.969,2.26-0.969,3.549,0.321
		c0.646,0.969,0.969,0.969,0.646,2.26c-0.322,0.323,0,1.613,0,1.936c0.645,0.646,1.291,0.968,1.936,0.968
		c0.646-0.322,1.289,0.323,1.613,0.969c0.322,0.646,0.967,0.968,1.291,1.613c0.646,0.968,0,0.968-0.645,1.612
		c-1.293,0.969-2.904,0-4.195-0.323c-1.613-0.321-3.227-0.645-4.195-1.612c-0.322-0.322,0.324-3.227,0.324-3.872
		C489.535,272.068,488.568,270.454,489.535,269.487"/>
	<path fill-rule="evenodd" clip-rule="evenodd" fill="#045BAA" d="M516.316,309.817c1.291-0.321,2.904,0,3.873-0.644
		c1.611-0.969-2.262-1.938-0.969-3.227c0.645-0.646,2.902,1.289,3.549,1.612c1.291,0.969,1.613,2.904,1.613,4.195
		c-1.613,0-2.904-0.646-4.518-0.646C518.898,311.109,515.67,311.432,516.316,309.817 M524.383,314.013
		c-0.646,0.968-2.904,5.809-4.518,4.518c0-0.646,0.645-0.969,0.967-1.291c0.324-0.968,0.324-1.613,0.646-2.58
		C521.801,313.367,523.736,312.078,524.383,314.013z M526.641,313.045c0.969,0,1.613,0.646,2.904,0.968
		c0.645,0.323,3.549,1.29,1.936,1.937c-1.291,0.645-2.58-0.323-3.549-0.646C526.965,314.98,524.061,313.367,526.641,313.045z
		 M534.385,314.336c0.645-0.969,1.613-0.646,2.258-1.291c0.969-0.323,1.938,0,2.26,0.968c0,0.968-4.518,0.968-5.162,0.646
		C534.063,314.659,534.063,314.336,534.385,314.336z M610.854,408.549c-1.291-1.936-1.936-3.87-2.904-6.13
		c-0.322-0.645-2.26-1.614-2.902-1.935c-0.969-0.646-1.938-0.646-2.904-0.969c-2.258-0.646-4.195-1.613-6.453-1.936
		c-0.969-0.323-1.613-0.968-2.582-1.291c-1.291,0-2.26,0.323-3.549,0c0.322-1.936,0.322-3.55-0.645-5.485
		c-0.969-1.29-1.938-3.872-3.873-4.193c-2.26-0.323-3.871-0.323-5.484-1.936c-0.969-0.646-1.291-1.614-1.938-2.26
		c-0.32-0.967-1.289-1.29-2.258-1.936c-1.613-0.968-3.229-2.581-4.84-3.55c-1.291-0.968-3.227-3.227-4.518-3.549
		c-0.967-0.323-1.936-0.645-2.904-0.968c-0.967-0.646-1.611-1.614-2.58-0.646c-1.291,1.29-2.902,3.227-4.84,2.904
		c0.646-0.969,1.613-1.291,2.258-2.259c0.646-0.646,0.969-0.969,0.646-1.614c-0.324-0.321-0.967-1.289-1.613-0.967
		c-2.26,1.29-5.486,1.612-8.066,1.936c-1.291,0.323-1.291,1.936-2.258,2.581c-0.324,0-0.324-0.322-0.646-0.322
		c-0.322,0.322-0.645,0.646-0.969,0.646c-0.322,0.322-0.967,1.29-1.611,1.29c-0.969-0.322-2.26-0.968-3.229-0.645
		c-0.969,0.322-2.58,1.612-3.549,1.612c-0.967-0.645-2.58-0.645-3.225-1.612c-0.324-0.969-0.324-2.904,0-3.873
		c0.322-2.258,1.291-5.807-2.582-5.807c-1.936-0.323-5.162,2.903-6.775,0c-1.291-2.259,4.193-5.163,0.645-6.776
		c-2.26-0.968-5.162,1.613-7.098,2.259c-1.291,0.646-2.26,0.646-3.549-0.322c-0.969-0.969-1.613-2.259-2.26-3.227
		c-1.291-1.613-1.291-1.936-1.291-3.872c-0.322-1.291,0.324-1.937,0.967-3.227c0.324-1.29,0.646-2.904,1.615-3.872
		c1.291-1.291,1.936-0.646,3.871-0.322c0.646,0.322,2.26-0.969,2.904-1.291c1.613-0.645,2.904-0.645,4.195-0.968
		c1.613-0.322,2.258-0.969,3.871-0.646c1.291,0.323,2.258,1.613,3.225,2.581c0.646,0.969,0,2.259,0,3.55
		c0.324,0.646,1.291,2.903,2.584,1.613c1.936-1.936,2.58-4.518,0.969-7.099c-0.646-0.969-1.291-1.614-1.291-2.903
		c0.322-1.291,0.322-1.937,1.291-3.228c1.611-1.936,2.902-3.549,4.193-5.484c0.967-1.613,0.645-4.84,1.289-6.454
		c0.322-1.936,0.969-4.839,2.582-5.484c2.582-1.291,1.291-3.872,2.582-5.485c1.291-1.936,2.582-3.549,4.193-5.484
		c0.645-0.968,0.969-1.291,0.969-2.581c0-0.968-2.258-1.291-1.613-2.26c0.645-0.645,1.289,0,1.613-0.645
		c0.322-0.646,0-0.646-0.646-0.968c-0.967-0.322-2.58,0-2.904,0.646c0.324,0.967,1.293,0.967,0.646,1.936
		c-0.322,0.968-0.967,2.258-1.936,0.968c-0.969-0.968,0.322-1.29-1.613-1.613c-0.969-0.323-2.258,0-3.227,0
		c0.969-0.968,1.291-1.936,2.582-2.258c1.611,0,2.58-0.646,3.871-0.646c1.936,0,5.484-1.29,5.809-3.549
		c0.322-1.613-0.969-2.259-1.615-3.226c-0.322-0.323-0.967-1.291-1.291-1.291c-0.322-0.323-1.613,0.322-1.934,0.322
		c-2.26,0.323-5.164-1.29-7.422-1.936c-2.904-0.646-4.195-1.937-6.129-4.518c-0.646-0.646-0.969-1.936-2.262-1.291
		c-1.291,0.969-2.258,0.969-3.547,0.323c-2.582-1.291-4.84-1.613-7.744-1.291c-1.613,0-1.936,0.323-2.258,1.937
		c-0.324,1.936,0.322,1.936,1.611,2.903c1.291,0.969,0.322,1.937,1.291,2.903c0.645,0.646,1.936,1.292,1.936,2.259
		c0.324,2.581,1.291,4.84,0.646,7.1c-1.291-0.969-2.582-2.26-3.873-2.904c-1.936-0.323-3.227,0-4.84-0.646
		c-1.289-0.969-2.904-1.612-4.516-2.581c-0.322-0.323-1.613,0-1.938-0.323c-0.645-0.646-0.967-1.29-1.936-1.936
		c-1.291-1.29-1.291-1.936,0.322-3.227c1.291-1.29,2.582-2.258,2.904-3.872c0.324-0.968-1.291-3.871-0.645-4.194
		c1.291-0.968,2.902-1.291,4.518-1.936c-0.969-1.937-4.195-3.227-6.131-4.517c-0.969-0.646-2.26-1.291-3.227-2.26
		c-0.969-0.968-0.969-1.935-2.582-2.581c-1.289-0.646-2.258-0.646-2.58,0.968c0,0.969,0.322,2.582,0.967,3.873
		c0.324,1.29,1.936,2.257,0.969,3.549c-0.969,1.289-2.26,1.289-3.871,1.289c-2.582,0-4.518,0.646-7.1-0.967
		c-1.291-0.322-2.582-1.291-3.549-1.614c-1.289-0.967-1.936-1.935-3.227-2.257c-2.58-0.646-5.162,0-7.744-0.969
		c-2.258-0.968-4.518-2.581-6.775-3.872c-0.967-0.646-1.613-0.968-2.58-1.613c-0.646-0.323-1.615-1.29-1.938-1.29
		c-1.936-0.323-4.193,0.967-6.131,1.612c-1.613,0.646-4.193,0.646-5.484,1.938c-0.967,0.645-0.967,1.612-0.967,2.58
		c-0.324,1.614-0.969,1.291-2.26,1.291c-1.936,0.323-0.967,0-1.613,1.613c-0.322,0.967-0.967,0.967-1.613,1.613
		c-1.291,1.29-0.967,4.193-0.645,5.808c0.645,1.29,1.291,1.29,0,2.259c-0.969,1.291-0.646,1.291-2.26,0.968
		s-3.871-0.646-5.484,0.646c0.322,0.322,1.289,1.29,1.289,1.612c0.324,0,1.293-0.322,1.613-0.322
		c1.291,0.646,2.904,1.291,4.195,0.646c1.291-0.323,1.613-1.613,2.904-0.323c0.969,0.646,2.904-0.322,3.873-0.645
		c2.904-0.322,5.162,0,8.066,0.322s4.193,3.227,5.484,5.162c2.258,4.519,3.549,9.681,6.131,14.52c0,0.323,0.646,0.323,0.969,0.969
		c0.32,0.646,0.32,0.969,0.32,1.612c0,1.614,0,3.228,0,4.518c0,2.904,0,6.131,0,9.034c0,0.968-0.32,2.259,0,3.227
		c0.646,0.968,1.938,2.259,2.582,3.227c0.646,1.291,1.291,2.581,1.936,4.195c0.324,0.967,1.936,1.936,2.26,3.227
		c0.645,2.58,1.936,4.839,3.547,7.098c1.291,2.259,2.262,5.162,4.842,6.453c0.967,0.645,0-2.904,0-3.227
		c-0.646-1.29-1.936-1.936-1.613-3.227c0.322-1.613-0.322-1.937-1.291-3.227c-0.646-0.969-1.613-2.258-2.58-3.227
		c-0.969-1.29-0.646-2.259,0.967-1.936c1.613,0.322,1.613,1.612,2.258,2.904c0.324,0.967,0.969,2.258,1.613,3.226
		c0.969,0.968,0.969,2.259,1.938,3.55c0.645,0.646,1.611,1.29,2.258,2.258s0.967,2.904,1.936,3.549
		c0.969,0.646,2.58,0.323,3.227,1.614c0.646,0.967,0.967,2.259,1.613,3.549c2.26,4.518,6.131,9.356,11.615,9.356
		c1.291,0,2.582-0.322,3.873-0.322c1.289,0.322,2.58,1.291,3.547,2.258c1.938,1.292,4.195,2.904,6.455,3.55
		c1.611,0.323,2.582-0.646,3.549,0.323c1.291,0.968,1.291,2.258,2.58,2.903c0.969,0.646,2.26,1.614,3.551,1.614
		c0.322,0,0.967,0.322,1.289,0.322c0.646,0.645,0.646,1.613,0.969,1.937c1.613,0.967,1.613-0.969,2.26-1.937
		c0.967-1.613,1.289-1.937,2.902-0.646c2.26,1.613,3.227,4.194,2.582,6.775c-0.322,1.29-1.613,1.936-2.258,2.903
		c-0.646,1.291-1.293,2.904-1.938,4.194c-0.967,1.614-0.322,5.486,0.322,7.422c0.322,1.29,0.646,2.258,0.646,3.871
		c0,1.614,0.322,2.581,1.291,4.194c0.967,2.582,0.645,5.163,0.645,7.744c0,0.968-0.322,2.581,0,3.871
		c0.322,0.97,1.291,2.259,1.936,3.227c0.969,1.292,1.938,2.26,2.904,3.228c0.967,0.646,0.324,2.58,0.324,3.548
		c0,0.97,0,1.937-0.324,2.906c0,0.968-0.646,1.611-0.967,2.581c0,1.935-0.969,3.226-1.615,5.162
		c-0.322,0.645-0.643,1.613-0.967,2.259c-0.322,0.644-1.291,0.967-1.613,1.611c-0.322,0.646-0.645,1.937-0.969,2.581
		c-0.322,0.646-1.291,1.614-1.291,2.26c0,0.968-0.322,1.936-0.322,2.581c0,1.291,0,0.968-0.646,2.259
		c-0.967,1.29-1.611,2.581-2.58,4.194c-0.967,1.613-1.934,3.228-2.58,5.162c-0.969,1.613-1.936,2.904-3.227,4.518
		c0.967,0,1.611,0.968,1.291,1.614c-0.324,0.967-1.615,1.288-2.26,1.611c-1.291,0.646-3.227,2.26-3.549,3.551
		c-0.645,1.612,0.967,4.516-0.324,5.483c-1.289,0.969-3.225,2.904-0.967,3.874c-1.291,1.935-2.258,3.226-0.645,5.485
		c0.645,0.644,1.936,1.288,2.258,2.258c0.324,0.323,0,1.935,0,2.58c0.969,0,1.613-0.967,2.26-0.322
		c0.322,0.322,0.967,0.645,1.611,0.968c0.324,0.322,1.291,0.322,1.291,0c1.291-0.323,0.645-0.646,0.324-1.291
		c0-0.967-0.324-0.644-0.324-1.611c0-0.646,0.324-1.293,0-1.614c-0.967-2.581-1.613,0.645-2.58-0.646
		c0.322-0.32,0.645-0.967,1.289-1.289c0.645-0.646,0.324-0.646,1.291-0.968c1.615-0.323,1.938-0.969,2.906-2.259
		c0.967-2.26,2.256-4.841,3.547-7.099c1.936-2.581,3.551-4.519,6.133-6.776c1.611-1.613,3.225-3.227,5.482-4.194
		c2.26-0.968,5.809-1.613,7.746-3.226c1.934-1.614,3.549-3.551,5.482-5.485c2.26-1.937,4.842-2.259,7.1-3.872
		c0.969-0.969,2.58-1.291,3.549-1.613c1.291-0.645,2.582-1.291,3.871-2.259c1.938-1.292,3.871-2.259,5.809-3.873
		c1.613-1.289,3.225-3.549,5.486-4.516c2.256-0.968,3.547-1.936,5.162-3.55c1.934-1.613,4.193-3.227,5.162-5.484
		c0.322-1.291,0.967-2.258,1.613-3.551c0.645-0.968,0.645-1.935,0.967-2.902c0.646-2.581,2.582-4.195,4.195-6.13
		c1.613-2.26,2.904-3.55,3.871-6.131c0.322-0.968,0.969-1.938,1.613-2.904C612.467,410.487,611.822,409.841,610.854,408.549z"/>
	<path fill-rule="evenodd" clip-rule="evenodd" fill="#045BAA" d="M553.1,308.851c-0.324,0.967-1.291,2.259-1.938,2.581
		c-1.613,0.646-0.969-1.614-0.322-2.581c0.645-0.969,1.291-2.259,2.26-1.936C554.711,307.236,554.066,308.205,553.1,308.851"/>
	<path fill-rule="evenodd" clip-rule="evenodd" fill="#045BAA" d="M554.066,299.171c0.322-0.646,0.967-2.259,1.936-1.612
		c0.646,0.644-0.322,2.258-0.969,2.581c1.293,0.645,4.195,0.321,4.842,1.935c0,0.646-0.646,1.937-1.291,2.259
		c-0.967,0.322-1.291-0.645-1.613-1.29c-0.645-0.969-3.871,1.936-4.84,0.322S553.422,299.816,554.066,299.171"/>
	<path fill-rule="evenodd" clip-rule="evenodd" fill="#045BAA" d="M535.352,355.958c2.26,0.967,4.518,2.259,6.777,2.259
		c0.967,0,2.26,0.967,2.26,1.936c0,0.646-2.906,0.646-3.229,0.646c-2.58-0.646-4.84-1.614-6.775-2.904
		c-0.967-0.646-1.291-1.291-1.291-2.581S535.029,355.636,535.352,355.958"/>
	<path fill-rule="evenodd" clip-rule="evenodd" fill="#045BAA" d="M552.131,359.829c1.615,0,4.195-0.322,4.84,1.937
		c0.322,1.613-1.291,0-1.613,0c-0.969-0.323-2.258,0-3.227,0s-1.291-0.323-2.582-0.646c-0.322-0.322-0.645-1.291-1.611-1.613
		c-0.971-0.646,1.611-0.968,1.611-0.968C550.84,358.539,551.484,358.539,552.131,359.829"/>
	<path fill-rule="evenodd" clip-rule="evenodd" fill="#045BAA" d="M559.551,362.411c0.969-0.323,0.969-0.646,1.938,0
		c0.322,0,1.291,0.968,1.291,1.29c-0.322,0.969-2.904-0.322-3.551-0.645C559.229,362.733,559.229,362.411,559.551,362.411"/>
	<path fill-rule="evenodd" clip-rule="evenodd" fill="#045BAA" d="M513.412,283.361c1.291,0.321,2.58,0.645,2.904,1.612
		c0.645,1.291,0,2.582-1.291,1.937c-1.291-0.323-2.58-0.646-3.227-1.937c0-0.322-0.324-1.291,0.322-1.612
		C512.121,283.361,513.09,283.683,513.412,283.361"/>
	<polygon fill-rule="evenodd" clip-rule="evenodd" fill="#045BAA" points="610.529,179.467 611.498,180.434 606.014,180.757 
		606.98,179.467 	"/>
	<polygon fill-rule="evenodd" clip-rule="evenodd" fill="#045BAA" points="60.731,293.686 64.925,294.654 63.312,301.106 
		111.709,313.367 113.968,306.915 118.486,308.205 109.128,345.633 104.611,344.987 105.58,337.244 57.827,324.66 55.891,332.081 
		51.374,331.113 	"/>
	<polygon fill-rule="evenodd" clip-rule="evenodd" fill="#045BAA" points="76.218,252.709 64.925,280.457 69.12,282.716 
		72.023,275.617 118.808,293.686 116.549,300.14 120.745,302.074 127.843,283.038 123.647,281.103 120.745,287.556 89.447,275.295 
		133.65,269.164 143.652,250.773 95.899,223.67 99.449,217.54 95.899,215.281 85.252,233.35 89.447,235.931 93.318,229.155 
		123.002,245.934 	"/>
	<path fill-rule="evenodd" clip-rule="evenodd" fill="#045BAA" d="M100.094,207.86c0.969-3.872,38.074-52.27,43.236-54.852
		l10.325,9.68l-4.195,3.55l-3.548-2.904c0,0-8.39,4.194-13.874,10.003l36.459,29.038v11.615l-12.583,17.424l-3.873-2.581
		l3.873-5.809l-38.719-30.652c0,0-5.808,10.003-7.098,16.455l4.194,3.228l-2.258,3.549L100.094,207.86z"/>
	<path fill-rule="evenodd" clip-rule="evenodd" fill="#045BAA" d="M147.847,147.524c0.967-2.581,44.849-40.654,49.688-42.268
		l8.067,11.293l-3.873,3.226l-3.872-4.839c0,0-11.293,2.903-23.231,14.196l14.52,16.455c0,0,8.39-4.194,7.099-6.453l-3.226-3.549
		l3.549-2.903l10.325,12.583l-2.904,2.903l-4.194-3.871l-6.453,5.162c0,0-0.323,0.968,0,1.612
		c0.645,0.323,13.874,14.843,13.874,14.843s0.645,0.646,1.612-0.322c0.969-0.967,12.906-11.938,13.229-16.133
		c0,0-0.323-1.612-1.937-3.227c-1.613-1.613-1.29-1.613-1.29-1.613l3.872-2.903l9.356,12.26l-28.394,22.909h-19.037l-28.394-31.298
		l-5.162,5.162L147.847,147.524z"/>
	<polygon fill-rule="evenodd" clip-rule="evenodd" fill="#045BAA" points="297.558,61.375 296.267,57.182 323.047,49.438 
		357.249,80.412 353.699,48.147 346.601,49.76 345.31,45.566 366.283,42.339 367.25,47.179 360.475,48.147 366.929,102.353 
		347.892,105.257 314.981,73.959 323.693,105.901 329.5,104.611 330.468,108.806 312.722,114.291 310.786,110.097 317.24,108.161 
		304.011,59.763 	"/>
	<path fill-rule="evenodd" clip-rule="evenodd" fill="#045BAA" d="M395,78.153l10-21.939l8.389,21.939H395z M446.625,98.48
		l-22.588-57.432h-19.682l-24.844,55.174l-5.163,0.645v4.841c2.581-0.323,18.714-0.646,18.714-0.646l-0.323-5.162l-5.484-0.322
		l5.163-12.584l22.908-0.322l5.162,13.229l-6.131,0.323l0.645,4.839c4.842-0.645,36.785,3.228,36.785,3.228l0.645-4.518
		L446.625,98.48z"/>
	<path fill-rule="evenodd" clip-rule="evenodd" fill="#045BAA" d="M456.303,58.794c0,0,2.58-11.938,2.904-13.551
		c0-0.645,41.621,6.453,65.82,16.777l-4.195,13.874l-5.807-1.936l1.936-4.84c0,0-12.582-7.744-13.873-7.744
		c0,0-12.584,46.463-12.584,46.786c0,0.321,6.775,2.903,6.775,2.903l-0.967,4.518c0,0-34.201-10.648-37.75-10.002l0.645-4.195
		l7.098,0.646l11.939-46.462l-15.166-0.322l-1.613,4.84L456.303,58.794z"/>
	<path fill-rule="evenodd" clip-rule="evenodd" fill="#045BAA" d="M533.418,65.248c0,0,34.846,15.487,35.168,16.455
		c0.645,0.968-1.936,4.518-1.936,4.518l-6.453-3.228l-20.65,44.85l6.131,3.871l-2.582,4.195c0,0-30.975-16.134-34.846-16.134
		l1.613-4.193l7.098,1.936l20.65-44.526l-6.455-3.872L533.418,65.248z"/>
	<path fill-rule="evenodd" clip-rule="evenodd" fill="#045BAA" d="M611.822,121.067c-1.293,5.808-2.904,10.97-18.07,28.716
		c0,0-5.162,7.42-12.262,4.517c0,0-5.16-2.904-6.451-4.517c-0.969-1.292-2.906-2.904-2.582-6.131c0.322-3.227,0-5.485,2.582-9.357
		c2.902-4.193,13.551-19.681,13.551-19.681s4.84-6.453,7.744-6.453s5.162,0,6.775,0.645c1.615,0.322,3.871,2.259,3.871,2.259
		S613.436,114.937,611.822,121.067 M622.791,117.195l-25.166-18.069c-27.426-9.034-39.041,6.775-41.945,19.683
		c-4.195,17.424,7.42,26.779,7.42,26.779s17.748,14.843,20.973,16.778c14.844,8.389,33.234,3.549,40.977-9.035
		C637.955,133.328,622.791,117.195,622.791,117.195z"/>
	<path fill-rule="evenodd" clip-rule="evenodd" fill="#045BAA" d="M619.242,176.886l29.361-30.007l-4.518-5.808l3.229-2.904
		l20.326,20.65l-4.518,41.299l19.682-14.842l-4.193-5.808l3.871-2.904l12.906,17.101l-3.549,3.872l-4.518-6.13l-44.203,31.942
		l-6.775-8.712v-5.163l5.484-46.139l-13.875,13.552H619.242z M616.016,179.79l0.322-0.323h9.035l-0.969,0.967L616.016,179.79z"/>
	<path fill-rule="evenodd" clip-rule="evenodd" fill="#045BAA" d="M676.996,234.318l0.324,0.321l25.49-2.903l-16.457,19.682
		L676.996,234.318z M724.105,243.997l-10.326-19.682l-59.367,7.099l-3.549-4.841l-3.873,2.26l10.648,15.81l3.871-2.581l-3.227-5.162
		l13.551-1.614l10.648,20.649l-8.711,10.003l-5.162-10.647l-4.195,1.937l18.068,40.654l3.871-1.937l-1.291-5.163L724.105,243.997z"
		/>
	<path fill-rule="evenodd" clip-rule="evenodd" fill="#045BAA" d="M739.916,297.559l-1.938-7.744l4.518-0.646l10.002,38.718
		l-4.518,0.968l-1.936-7.099l-47.752,11.938c0,0,2.258,16.456,6.451,18.392l6.777-0.323l0.646,5.809l-14.52,1.936
		c0,0-9.682-51.625-12.586-55.174l3.549-1.29l3.229,7.098L739.916,297.559z"/>
	<path fill-rule="evenodd" clip-rule="evenodd" fill="#045BAA" d="M137.521,559.873c-0.645,0.646-11.293,9.034-28.07,17.425
		c0,0-7.421,4.518-12.583-0.646c0,0-3.549-3.228-3.872-5.163c-0.322-1.613-1.613-3.872,0-6.453c1.613-2.903,1.937-4.517,5.808-7.098
		c3.872-2.582,20.004-12.262,20.004-12.262s7.42-3.871,9.679-2.903c3.227,1.291,4.517,1.937,6.131,3.227
		c1.29,0.968,2.581,3.55,2.581,3.55S141.071,555.034,137.521,559.873 M147.524,558.584l-14.197-25.168
		c-20.972-17.745-37.75-6.453-45.172,3.55c-10.002,13.873-4.194,26.456-4.194,26.456s10.002,19.36,12.261,22.265
		c10.002,12.905,29.039,13.551,40.332,4.517C151.718,578.265,147.524,558.584,147.524,558.584z"/>
	<path fill-rule="evenodd" clip-rule="evenodd" fill="#045BAA" d="M102.352,445.655l-1.29-8.068l4.517-1.288
		c0,0,4.517,29.683,5.485,30.652c1.291,1.289-25.813,19.035-25.813,19.035l30.976,3.871l10.647,26.459l-3.873,2.58l-3.548-7.743
		l-47.107,16.133l1.936,8.067l-3.549,1.289l-12.906-37.428l3.872-1.613l2.903,7.422l31.943-11.615l-41.299-4.518l-2.904-11.615
		l35.169-22.909l-33.556,5.809l1.291,6.453l-4.517,0.968l-3.55-20.326l4.194-0.97l1.291,6.776L102.352,445.655z"/>
	<polygon fill-rule="evenodd" clip-rule="evenodd" fill="#045BAA" points="120.099,614.402 115.259,608.594 111.387,611.177 
		124.938,628.922 128.81,626.018 123.971,619.565 151.074,599.237 141.071,646.345 156.235,661.51 193.664,621.822 197.858,626.34 
		200.762,622.146 188.501,609.562 185.274,613.435 188.824,617.951 165.27,642.15 175.272,594.721 160.431,576.652 156.235,579.233 
		160.431,583.427 	"/>
	<path fill-rule="evenodd" clip-rule="evenodd" fill="#045BAA" d="M209.151,670.866l-14.842,16.778c0,0,10.002,9.034,19.682,11.293
		l4.517-6.453l4.517,3.226l-8.067,11.616c0,0-41.621-29.361-46.784-35.17l2.259-2.902l5.162,4.193l31.297-39.688l-4.517-4.191
		l2.904-3.872c0,0,23.553,20.648,42.59,31.62l-7.743,13.227l-4.518-2.581l3.226-6.452c0,0-6.775-10.97-13.551-13.23l-13.874,17.425
		l6.775,4.839l2.904-3.227l4.194,1.938l-8.389,13.873l-3.227-1.935l2.581-5.809L209.151,670.866z"/>
	<path fill-rule="evenodd" clip-rule="evenodd" fill="#045BAA" d="M246.256,673.447l6.776-13.229c0,0,37.105,20.005,57.432,25.166
		l-4.84,14.196l-4.839-1.935l1.613-5.162c0,0-11.293-8.066-12.584-8.711l-20.327,45.17l6.775,3.228l-1.29,3.549l-36.138-15.487
		l2.259-4.195l6.776,3.549l19.682-45.815c0,0-10.647-3.228-13.874-1.935l-2.904,3.871L246.256,673.447z"/>
	<path fill-rule="evenodd" clip-rule="evenodd" fill="#045BAA" d="M305.624,723.137l15.81-19.037l5.485,24.844L305.624,723.137z
		 M319.498,749.917c3.226,0.968,40.655,6.774,40.655,6.774l-0.323-4.517l-3.872-0.323l-11.292-57.108l-21.295-5.485l-35.492,46.14
		l-6.13-0.969l-1.291,3.55l17.102,6.13l1.613-3.548l-5.162-2.261l7.743-10.647l25.812,6.776l2.259,12.908l-9.68-1.292
		L319.498,749.917z"/>
	<path fill-rule="evenodd" clip-rule="evenodd" fill="#045BAA" d="M260.453,99.771c-1.292,1.29-11.616,6.13-11.616,6.13
		l-11.292-19.681l11.938-5.809c0,0,3.226-0.968,4.84,0.323c1.613,1.613,8.066,14.842,8.066,14.842S261.743,98.158,260.453,99.771
		 M304.011,112.032l-1.291,0.646c0,0-2.259,0.322-3.549,0.646c-1.291,0-3.549-1.613-4.195-2.259s-3.548-7.744-4.517-8.065
		c-0.646-0.646-4.517-4.841-8.388-4.195c-3.872,0.322-6.776,0-6.776,0c15.81-13.229,1.613-31.62-10.971-29.685
		C253.032,70.732,207.86,98.48,207.86,98.48l2.904,3.55l5.485-3.55l24.521,43.559l-5.485,4.194l2.903,3.227l31.298-18.069
		l-2.259-4.193c0,0-2.581,1.936-4.194,2.259c-1.292,0.646-0.968,0-0.968,0l-10.97-19.037l9.357-4.518c0,0,3.225-0.968,4.194-1.29
		c0.968-0.322,2.259,1.29,2.259,1.29s7.744,13.874,9.034,15.811c1.291,1.936,4.195,1.936,5.163,2.259
		c0.969,0.323,9.035-1.936,9.035-1.936l15.487-5.809L304.011,112.032z"/>
	<path fill-rule="evenodd" clip-rule="evenodd" fill="#045BAA" d="M412.744,724.104c0,0,0,2.259-1.613,2.582
		s-12.583,0.323-12.583,0.323l0.646-22.586h11.292c0,0,2.258,1.29,2.582,2.581C413.389,708.295,412.744,724.104,412.744,724.104
		 M443.721,752.175l-0.971,0.323c0,0-4.838,0.321-6.451-1.292c-0.324-0.321-0.646-0.644-0.646-0.644c0-0.323,0-1.291-0.322-4.518
		c-0.645-7.422-8.711-14.52-8.711-14.52s11.938-6.131,11.938-15.81c0-9.68-9.033-15.165-11.293-15.812
		c-2.58-0.644-7.098-0.644-7.098-0.644c-14.52,1.935-51.625-1.291-51.625-1.291l0.322,4.839l5.808,0.646l-2.582,49.688l-5.485-0.323
		c0,0-0.646,4.518,0,4.841c0.967,0.322,35.492,1.291,35.492,1.291l-0.646-4.518l-4.838,0.323l0.967-22.909
		c0,0,10.002,0,10.971-0.322c1.289,0,3.549,4.518,3.549,4.518s0.645,16.455,0.645,17.423c0,1.291,3.871,3.871,5.486,4.517
		c1.936,0.969,26.457-1.612,26.457-1.612L443.721,752.175z"/>
	<path fill-rule="evenodd" clip-rule="evenodd" fill="#045BAA" d="M439.203,697.646l38.717-7.1c0,0,1.291,3.229,1.291,3.873
		c0,0.969-4.84,0.646-4.84,1.612c0.322,1.291,19.037,15.166,19.037,15.166s10.971-21.618,10.002-24.199l-4.518,1.291l-1.613-4.517
		l17.424-6.132l2.258,3.551l-5.162,2.581l-13.873,33.555l5.484,21.939l6.775-1.289l1.613,4.193l-37.105,9.356l-1.934-3.871
		l7.096-2.258l-5.162-21.619l-29.361-22.585l-5.486,0.646L439.203,697.646z"/>
	<path fill-rule="evenodd" clip-rule="evenodd" fill="#045BAA" d="M546.646,662.479c0,0,39.363-22.91,46.783-32.91l9.357,11.937
		l-4.195,3.872l-4.516-5.162c0,0-12.586,3.87-18.391,9.034l11.613,19.682l7.744-6.132l-2.582-4.516l4.842-3.228l9.678,12.584
		l-4.516,3.873l-3.873-4.196l-7.744,6.131l11.295,18.069l5.807-3.872l2.904,4.193l-32.588,21.296l-2.904-4.195l5.809-3.872
		l-26.137-42.268l-6.773,3.229L546.646,662.479z"/>
	<path fill-rule="evenodd" clip-rule="evenodd" fill="#045BAA" d="M598.592,626.018l24.846-25.167l3.549,3.228l-3.549,4.194
		l26.457,27.748c0,0,6.453,3.871,12.26,0.321c5.486-3.871,9.357-7.097,7.422-13.873c-1.613-6.776-2.582-6.453-4.518-8.066
		c-2.258-1.613-26.781-23.553-26.781-23.553l-4.193,5.162l-3.549-3.549l11.293-14.842l3.549,3.548l-2.582,4.518l27.426,23.554
		c0,0,6.453,9.68,5.809,15.163c-0.324,5.809-1.613,9.036-2.582,10.003c-0.645,1.291-17.422,18.393-17.422,18.393
		s-8.068,5.161-11.615,4.838c-3.229-0.32-10.004-2.258-11.939-4.516c-1.936-2.26-26.781-27.747-26.781-27.747l-4.516,3.871
		L598.592,626.018z"/>
	<polygon fill-rule="evenodd" clip-rule="evenodd" fill="#045BAA" points="649.248,575.684 645.377,572.778 657.314,554.067 
		705.391,544.064 676.352,529.545 673.125,535.03 668.93,532.771 676.996,515.994 681.514,517.929 678.934,523.414 728.299,546.968 
		719.264,566.326 671.189,575.039 697.324,593.753 701.52,586.978 705.391,589.235 693.453,606.98 689.904,604.723 693.773,598.27 
		652.799,570.198 	"/>
	<path fill-rule="evenodd" clip-rule="evenodd" fill="#045BAA" d="M743.787,487.601l-3.229,11.938c0,0-47.105-15.486-47.428-16.133
		c0,0,0.967-5.485,2.258-10.002c0.645-3.55,4.84-2.26,4.84-2.26s36.135,10.003,40.654,10.971
		C745.721,483.405,743.787,487.601,743.787,487.601 M724.426,450.494c-21.295-4.839-30.973,14.843-30.973,14.843l-13.551,45.493
		l3.547,1.613l2.582-6.129l46.461,15.809l-1.934,7.744l4.193,1.935c0,0,14.842-41.621,15.166-51.624
		C750.563,470.177,743.141,454.366,724.426,450.494z"/>
	<polygon fill-rule="evenodd" clip-rule="evenodd" fill="#045BAA" points="68.797,390.159 74.927,372.091 80.413,390.159 
		98.481,390.159 83.639,401.451 89.447,418.875 74.605,407.581 58.472,419.52 65.248,400.805 50.729,390.159 	"/>
	<polygon fill-rule="evenodd" clip-rule="evenodd" fill="#045BAA" points="722.813,394.676 729.268,376.607 734.752,394.676 
		752.82,394.676 737.979,405.968 743.787,423.715 728.943,412.422 712.488,424.36 719.264,405.646 704.744,394.676 	"/>
</g>
</svg>
